# xmcd CD database file
#
# Track frame offsets:
#	150
#	20075
#	47812
#	66952
#	81907
#	101287
#	122847
#	139317
#	160517
#	182492
#	206307
#	216437
#	237650
#	255737
#	274217
#	293535
#
# Disc length: 4168 seconds
#
# Revision: 0
# Processed by: cddbd v1.4PL0 Copyright (c) Steve Scherf et al.
# Submitted via: CDex 1.50Beta7
#
DISCID=ed104610
DTITLE=Dave Koz - The Dance
DYEAR=1900
DGENRE=Jazz
TTITLE0=First Love
TTITLE1=Careless Whisper
TTITLE2=Together Again
TTITLE3=I'm Waiting For You
TTITLE4=Can't Let You Go (The Sha La Song)
TTITLE5=Love Is On The Way
TTITLE6=Know You By Heart
TTITLE7=Surrender
TTITLE8=You Are Me, I Am You
TTITLE9=The Dance
TTITLE10=Cuban Hideaway
TTITLE11=The Bright Side
TTITLE12=Don't Give Up
TTITLE13=Right By Your Side
TTITLE14=I'll Be There
TTITLE15=Conquered
EXTD=
EXTT0=
EXTT1=
EXTT2=
EXTT3=
EXTT4=
EXTT5=
EXTT6=
EXTT7=
EXTT8=
EXTT9=
EXTT10=
EXTT11=
EXTT12=
EXTT13=
EXTT14=
EXTT15=
PLAYORDER=
